<svg xmlns="http://www.w3.org/2000/svg" width="48" height="48" viewBox="0 0 48 48" version="1.1"><path d="M 0 24.018 L 0 48.036 24.250 47.768 L 48.500 47.500 48.768 23.750 L 49.036 0 24.518 0 L 0 0 0 24.018 M 0.431 24.500 C 0.432 37.700, 0.574 42.962, 0.747 36.193 C 0.921 29.424, 0.920 18.624, 0.746 12.193 C 0.572 5.762, 0.431 11.300, 0.431 24.500 M 23.129 7.182 C 17.041 11.416, 16 12.568, 16 15.070 C 16 17.333, 16.455 18, 18 18 C 19.262 18, 20 17.333, 20 16.193 C 20 14.357, 28.027 7.979, 30.279 8.025 C 30.951 8.038, 33.638 9.618, 36.250 11.535 L 41 15.019 41 21.510 C 41 27.333, 41.205 28, 43 28 C 44.832 28, 44.996 27.348, 44.956 20.250 L 44.911 12.500 37.584 7.362 L 30.257 2.223 23.129 7.182 M 27.583 13.866 C 27.152 14.563, 27.070 15.403, 27.400 15.733 C 28.295 16.628, 29.271 15.312, 28.787 13.862 C 28.449 12.846, 28.213 12.846, 27.583 13.866 M 31.583 13.866 C 31.152 14.563, 31.070 15.403, 31.400 15.733 C 32.295 16.628, 33.271 15.312, 32.787 13.862 C 32.449 12.846, 32.213 12.846, 31.583 13.866 M 27 19 C 27 19.550, 27.450 20, 28 20 C 28.550 20, 29 19.550, 29 19 C 29 18.450, 28.550 18, 28 18 C 27.450 18, 27 18.450, 27 19 M 31 19 C 31 19.550, 31.450 20, 32 20 C 32.550 20, 33 19.550, 33 19 C 33 18.450, 32.550 18, 32 18 C 31.450 18, 31 18.450, 31 19 M 3 33.500 L 3 45 8.950 45 C 13.248 45, 15.138 44.576, 15.756 43.472 C 16.511 42.123, 17.394 42.187, 23.340 44.023 L 30.069 46.102 38.534 43.345 C 45.088 41.211, 47 40.172, 47 38.748 C 47 35.942, 42.492 32, 39.283 32 C 37.346 32, 36.168 31.312, 35.487 29.783 C 33.769 25.922, 22.131 22.137, 11.750 22.063 L 3 22 3 33.500 M 7 33.500 C 7 40.333, 7.178 41, 9 41 C 10.822 41, 11 40.333, 11 33.500 C 11 26.667, 10.822 26, 9 26 C 7.178 26, 7 26.667, 7 33.500 M 16 31.915 L 16 37.829 23.287 39.547 C 30.259 41.191, 30.834 41.186, 36.537 39.423 L 42.500 37.581 34.500 36.945 C 24.983 36.188, 20.779 34.740, 21.633 32.513 C 22.112 31.267, 23.239 31.088, 27.364 31.605 C 33.754 32.406, 32.735 31.067, 24.712 28.123 C 16.146 24.980, 16 25.044, 16 31.915" stroke="none" fill="#f9f9fb" fill-rule="evenodd"/><path d="M 23.129 7.182 C 17.041 11.416, 16 12.568, 16 15.070 C 16 17.333, 16.455 18, 18 18 C 19.262 18, 20 17.333, 20 16.193 C 20 14.357, 28.027 7.979, 30.279 8.025 C 30.951 8.038, 33.638 9.618, 36.250 11.535 L 41 15.019 41 21.510 C 41 27.333, 41.205 28, 43 28 C 44.832 28, 44.996 27.348, 44.956 20.250 L 44.911 12.500 37.584 7.362 L 30.257 2.223 23.129 7.182 M 27.583 13.866 C 27.152 14.563, 27.070 15.403, 27.400 15.733 C 28.295 16.628, 29.271 15.312, 28.787 13.862 C 28.449 12.846, 28.213 12.846, 27.583 13.866 M 31.583 13.866 C 31.152 14.563, 31.070 15.403, 31.400 15.733 C 32.295 16.628, 33.271 15.312, 32.787 13.862 C 32.449 12.846, 32.213 12.846, 31.583 13.866 M 27 19 C 27 19.550, 27.450 20, 28 20 C 28.550 20, 29 19.550, 29 19 C 29 18.450, 28.550 18, 28 18 C 27.450 18, 27 18.450, 27 19 M 31 19 C 31 19.550, 31.450 20, 32 20 C 32.550 20, 33 19.550, 33 19 C 33 18.450, 32.550 18, 32 18 C 31.450 18, 31 18.450, 31 19 M 3 33.500 L 3 45 8.950 45 C 13.248 45, 15.138 44.576, 15.756 43.472 C 16.511 42.123, 17.394 42.187, 23.340 44.023 L 30.069 46.102 38.534 43.345 C 45.088 41.211, 47 40.172, 47 38.748 C 47 35.942, 42.492 32, 39.283 32 C 37.346 32, 36.168 31.312, 35.487 29.783 C 33.769 25.922, 22.131 22.137, 11.750 22.063 L 3 22 3 33.500 M 7 33.500 C 7 40.333, 7.178 41, 9 41 C 10.822 41, 11 40.333, 11 33.500 C 11 26.667, 10.822 26, 9 26 C 7.178 26, 7 26.667, 7 33.500 M 16 31.915 L 16 37.829 23.287 39.547 C 30.259 41.191, 30.834 41.186, 36.537 39.423 L 42.500 37.581 34.500 36.945 C 24.983 36.188, 20.779 34.740, 21.633 32.513 C 22.112 31.267, 23.239 31.088, 27.364 31.605 C 33.754 32.406, 32.735 31.067, 24.712 28.123 C 16.146 24.980, 16 25.044, 16 31.915" stroke="none" fill="#4a42cd" fill-rule="evenodd"/></svg>